<svg width="1733" height="1732" viewBox="0 0 1733 1732" fill="none" xmlns="http://www.w3.org/2000/svg">
<g filter="url(#filter0_f_1306_5153)">
<circle cx="866.379" cy="866.053" r="277.947" fill="#12ACEE"/>
</g>
<g filter="url(#filter1_f_1306_5153)">
<circle cx="866.379" cy="866.053" r="277.947" fill="#12ACEE"/>
</g>
<circle cx="866.379" cy="866.053" r="277.947" fill="url(#paint0_radial_1306_5153)"/>
<path fill-rule="evenodd" clip-rule="evenodd" d="M858.974 1010.24C809.284 1007.2 761.7 976.803 738.568 932.385C717.1 891.166 717.438 839.385 739.379 798.48C763.942 752.693 812.666 724.771 866.595 722.37C866.595 722.37 879.996 721.511 888.94 716.432C915.478 701.352 919.442 656.841 890.92 638.665C883.241 633.773 874.077 631.508 864.94 631.536C774.843 632.399 687.72 688.702 651.097 772.233C620.319 842.443 626.722 927.587 668.536 992.693C701.814 1044.5 756.086 1082.39 816.291 1095.49C898.682 1113.42 989.942 1082.95 1045.02 1018.7C1099.62 954.983 1116.3 860.801 1085.72 781.735C1068.19 736.408 1037.13 695.072 995.561 670.203C993.39 668.904 991.115 667.835 988.77 666.981C1030.58 702.792 1057.09 755.929 1057.09 815.196C1057.09 922.924 969.52 1010.38 861.647 1010.38C860.765 1010.38 860.676 1010.34 858.974 1010.24Z" fill="#069EE0"/>
<g filter="url(#filter2_f_1306_5153)">
<circle cx="866.379" cy="866.053" r="277.947" fill="white" fill-opacity="0.4"/>
</g>
<defs>
<filter id="filter0_f_1306_5153" x="0.432129" y="0.106689" width="1731.89" height="1731.89" filterUnits="userSpaceOnUse" color-interpolation-filters="sRGB">
<feFlood flood-opacity="0" result="BackgroundImageFix"/>
<feBlend mode="normal" in="SourceGraphic" in2="BackgroundImageFix" result="shape"/>
<feGaussianBlur stdDeviation="294" result="effect1_foregroundBlur_1306_5153"/>
</filter>
<filter id="filter1_f_1306_5153" x="448.432" y="448.107" width="835.893" height="835.893" filterUnits="userSpaceOnUse" color-interpolation-filters="sRGB">
<feFlood flood-opacity="0" result="BackgroundImageFix"/>
<feBlend mode="normal" in="SourceGraphic" in2="BackgroundImageFix" result="shape"/>
<feGaussianBlur stdDeviation="70" result="effect1_foregroundBlur_1306_5153"/>
</filter>
<filter id="filter2_f_1306_5153" x="380.432" y="380.107" width="971.893" height="971.893" filterUnits="userSpaceOnUse" color-interpolation-filters="sRGB">
<feFlood flood-opacity="0" result="BackgroundImageFix"/>
<feBlend mode="normal" in="SourceGraphic" in2="BackgroundImageFix" result="shape"/>
<feGaussianBlur stdDeviation="104" result="effect1_foregroundBlur_1306_5153"/>
</filter>
<radialGradient id="paint0_radial_1306_5153" cx="0" cy="0" r="1" gradientUnits="userSpaceOnUse" gradientTransform="translate(866.379 866.053) rotate(90) scale(277.947)">
<stop stop-color="white"/>
<stop offset="0.854167" stop-color="white" stop-opacity="0.948333"/>
<stop offset="1" stop-color="white" stop-opacity="0.22"/>
</radialGradient>
</defs>
</svg>
